<svg xmlns="http://www.w3.org/2000/svg" width="256" height="256"><path fill="#1976D2" fill-opacity=".016" fill-rule="evenodd" d="M0 128.004v128.004l128.25-.254 128.25-.254.254-127.75L257.008 0H0zm.485.496c0 70.4.119 99.053.265 63.672s.146-92.98 0-128S.485 58.1.485 128.5"/><path fill="#1976D2" fill-opacity=".338" fill-rule="evenodd" d="M48.334 22.738C42.315 37.119 11.023 124.228 11.562 125.1c.306.495 3.028.9 6.049.9h5.493l-6.183 5.25c-3.401 2.887-7.255 6.079-8.564 7.092-3.137 2.427-7.044 9.258-7.864 13.752l-.657 3.593 38.832 25.526c50.883 33.448 82.293 53.835 83.885 54.446.904.347 1.469-1.083 1.91-4.833.344-2.929.493-51.676.331-108.326l-.294-103-37.296-.262-37.296-.262zm83.098 13c-1.207 25.86-1.132 196.959.086 198.179 1.078 1.079 3.294-.301 70.982-44.227 55.938-36.302 53.624-34.68 52.955-37.101-1.899-6.876-11.728-35.512-27.833-81.089l-18.374-52-38.517-.262-38.517-.261zM80.137 47.936l-8.363.564-6.204 16c-3.411 8.8-7.627 19.938-9.367 24.75L53.038 98h41.658l.652-10.656c.359-5.86.652-17.335.652-25.5V47l-3.75.186c-2.062.103-7.513.44-12.113.75M162 114.066c0 62.408.118 67.103 1.676 66.505 2.351-.902 55.207-35.573 55.873-36.649.299-.485-.12-2.803-.932-5.152-1.463-4.235-9.447-26.821-14.234-40.27-1.371-3.85-5.692-16.225-9.602-27.5s-7.598-21.009-8.195-21.63c-.605-.63-6.288-1.423-12.836-1.791L162 46.918zM59.976 134.098c-5.762 4.453-11.925 9.516-13.697 11.25l-3.221 3.152 5.721 3.986C56.999 158.213 93.153 181 94.02 181c1.526 0 1.98-7.019 1.98-30.625V126H70.452z"/><path fill="#1976D2" fill-opacity=".374" fill-rule="evenodd" d="M46.348 28.754C44.614 33.564 36.181 56.625 27.609 80s-15.591 43.041-15.597 43.702c-.008.773 2.147 1.309 6.027 1.5l6.038.298-9.642 8.356c-6.904 5.984-10.198 9.614-11.601 12.786-3.763 8.507-4.565 7.677 28.166 29.141C85.784 211.709 123.122 236 123.562 236c.241 0 .438-48.6.438-108V20l-37.25.004-37.25.005zM131.66 42.65c-.993 34.102-.773 188.623.27 190.271.772 1.22 1.229 1.206 3.235-.101 1.284-.837 21.46-13.897 44.835-29.021 69.373-44.888 75-48.661 75-50.293 0-2.542-5.951-20.132-26.39-78.006l-19.425-55-38.433-.262-38.432-.261zm-60.591 6.6C55.078 90.057 52.638 97.152 54.246 98.173c1.495.95 30.49 1.099 37.114.191l4.64-.636V47H83.975c-11.542 0-12.06.09-12.906 2.25m90.045 52.5c.063 30.113.4 60.497.75 67.521l.636 12.772 26.585-17.272c14.622-9.499 27.738-18.171 29.148-19.271l2.564-2-16.8-47.491c-14.896-42.107-17.067-47.565-19.149-48.15-1.291-.363-7.186-.704-13.098-.759L161 47zm-97.261 28.887C51.126 140.394 43 147.196 43 148.091c0 1.873 50.625 34.259 52.115 33.338.487-.301.885-13.12.885-28.488V125H71.207z"/><path fill="#1976D2" fill-opacity=".981" fill-rule="evenodd" d="M49.516 21.75C45.201 32.563 12 123.464 12 124.465c0 .294 2.7.535 6 .535s5.973.338 5.94.75-3.643 3.675-8.022 7.25-9.068 7.92-10.419 9.655c-2.913 3.743-5.364 11.922-3.955 13.2 1.016.922 74.116 48.882 103.409 67.846 9.599 6.214 17.812 11.299 18.25 11.299s.797-48.375.797-107.5V20H87.107c-34.204 0-36.944.128-37.591 1.75m83.13 4.5c-.979 10.297-1.861 192.659-.97 200.505l.824 7.254 13.5-8.653c26.719-17.126 107.518-69.596 108.332-70.35 1.254-1.161-1.389-9.221-24.512-74.756L208.562 20H133.24zM82.008 46.946l-10.491.554-4.796 12C59.975 76.381 53 95.689 53 97.484 53 98.791 55.941 99 74.369 99h21.369l.731-25.433c.402-13.989.435-25.914.072-26.5-.362-.587-1.42-.979-2.35-.871s-6.412.445-12.183.75M161 113.584c0 43.994.348 67.513 1.005 67.919.552.341 7.865-3.814 16.25-9.234 33.322-21.538 42.733-27.796 42.739-28.42.018-1.912-33.169-94.441-34.233-95.442-.767-.722-6.056-1.369-13.511-1.654L161 46.286zM58.5 134.381c-6.6 5.157-13.031 10.493-14.292 11.857l-2.292 2.48 18.292 11.974C82.756 175.452 93.353 182 94.695 182c1.669 0 2.287-9.076 2.296-33.75L97 125l-13.25.002-13.25.001z"/></svg>